<svg width="1360" height="463" viewBox="0 0 1360 463" fill="none" xmlns="http://www.w3.org/2000/svg">
<path fill-rule="evenodd" clip-rule="evenodd" d="M820.469 63.9816H756.62V0H0V83.1761H76.6197V243.13L228.263 83.496L332.019 84.7757L193.784 232.893L338.815 463H379.906V86.3752H459.718V396.686H648.075V463H702.347V83.1761H983.286V150.357H778.967V230.334H970.516V297.515H778.967V396.686L991.268 398.286L992.796 463H1056.71V83.1761H1133.33L1279.23 323.107V83.1761H1360V0H931.568L930.61 62.3821L868.357 63.9816V0H820.469V63.9816ZM1279.75 463L1133.33 227.135V463H1279.75ZM240.526 463L138.235 287.917C137.596 286.958 76.6197 350.299 76.6197 350.299V463H240.526Z" fill="white"/>
</svg>
